<svg width="1280" height="720" viewBox="0 0 1280 720" fill="none" xmlns="http://www.w3.org/2000/svg">
  <rect width="1280" height="720" fill="#F7FAF8"/>
  <rect x="72" y="56" width="1136" height="608" rx="34" fill="#FFFFFF" stroke="#D8E5DB" stroke-width="3"/>

  <g transform="translate(144 126)">
    <rect x="0" y="0" width="92" height="92" rx="26" fill="#EAF7EE"/>
    <circle cx="46" cy="46" r="34" fill="#1E8E3E"/>
    <path d="M30 35H62C66.9706 35 71 39.0294 71 44C71 48.9706 66.9706 53 62 53H55V67C55 71.9706 50.9706 76 46 76C41.0294 76 37 71.9706 37 67V53H30C25.0294 53 21 48.9706 21 44C21 39.0294 25.0294 35 30 35Z" fill="white"/>
    <path d="M46 16C50.9706 16 55 20.0294 55 25V33H37V25C37 20.0294 41.0294 16 46 16Z" fill="white"/>
  </g>

  <text x="264" y="174" fill="#0F172A" font-family="Arial, Helvetica, sans-serif" font-size="46" font-weight="700">Tinku</text>
  <text x="264" y="216" fill="#1E8E3E" font-family="Arial, Helvetica, sans-serif" font-size="22" font-weight="700" letter-spacing="3">CORPORATE WELLNESS</text>

  <text x="144" y="336" fill="#0F172A" font-family="Arial, Helvetica, sans-serif" font-size="64" font-weight="700">Benefits that connect</text>
  <text x="144" y="389" fill="#475569" font-family="Arial, Helvetica, sans-serif" font-size="28">Health, insurance, and employee support services in one platform.</text>

  <rect x="144" y="472" width="238" height="64" rx="32" fill="#1E8E3E"/>
  <text x="191" y="512" fill="#FFFFFF" font-family="Arial, Helvetica, sans-serif" font-size="22" font-weight="700">View platform</text>

  <g transform="translate(768 142)">
    <circle cx="196" cy="196" r="196" fill="#F2F8F4"/>
    <circle cx="196" cy="196" r="142" fill="#1E8E3E"/>
    <path d="M123 143H269C289.987 143 307 160.013 307 181C307 201.987 289.987 219 269 219H235V285C235 305.987 217.987 323 197 323C176.013 323 159 305.987 159 285V219H123C102.013 219 85 201.987 85 181C85 160.013 102.013 143 123 143Z" fill="#FFFFFF"/>
    <path d="M197 70C217.987 70 235 87.0132 235 108V132H159V108C159 87.0132 176.013 70 197 70Z" fill="#FFFFFF"/>
    <circle cx="98" cy="304" r="20" fill="#BFE4C8"/>
    <circle cx="314" cy="96" r="18" fill="#BFE4C8"/>
    <circle cx="342" cy="286" r="12" fill="#BFE4C8"/>
  </g>
</svg>
